<svg width="460" height="149" viewBox="0 0 460 149" fill="none" xmlns="http://www.w3.org/2000/svg">
<path d="M460 46.0859V107.269H445.873V58.9876H419.884V107.269H405.756V46.0859H460Z" fill="#DAFC68"/>
<path d="M380.573 107.27L371.244 61.3826L378.84 41.4316L395.9 107.27H380.573ZM350.586 94.7672L378.84 41.4316L380.173 64.9738L354.584 111.393L350.586 94.7672ZM354.584 111.393L329.261 64.9738L330.594 41.4316L358.582 94.7672L354.584 111.393ZM313.668 107.27L330.594 41.4316L338.324 61.3826L328.995 107.27H313.668Z" fill="#DAFC68"/>
<path d="M263.45 89.1807C263.45 91.0427 263.939 92.5945 264.916 93.8359C265.983 95.0773 267.36 96.0527 269.048 96.762C270.736 97.3827 272.646 97.6931 274.779 97.6931C277.889 97.6931 280.687 97.2054 283.175 96.23C285.663 95.2546 287.618 93.7029 289.04 91.5748C290.461 89.4467 291.172 86.6092 291.172 83.0624L293.304 89.9787C293.304 93.8802 292.283 97.2497 290.239 100.087C288.195 102.836 285.441 104.964 281.976 106.471C278.511 107.89 274.646 108.6 270.381 108.6C266.382 108.6 262.739 107.89 259.452 106.471C256.253 105.053 253.677 102.969 251.722 100.22C249.856 97.3827 248.923 93.8802 248.923 89.7127C248.923 85.5452 249.989 81.954 252.122 78.9392C254.254 75.9244 257.275 73.6189 261.185 72.0228C265.183 70.4268 269.848 69.6287 275.179 69.6287C278.733 69.6287 281.887 70.0721 284.641 70.9588C287.485 71.8455 289.839 72.8652 291.705 74.0179C293.571 75.1707 294.859 76.1904 295.57 77.0771V84.6584C292.816 82.619 290.017 81.1559 287.174 80.2692C284.33 79.2939 281.043 78.8062 277.311 78.8062C274.29 78.8062 271.713 79.2495 269.581 80.1362C267.537 80.9343 265.983 82.1313 264.916 83.7274C263.939 85.2348 263.45 87.0526 263.45 89.1807ZM260.252 62.1804L254.521 51.9389C257.275 50.2541 260.785 48.6137 265.05 47.0177C269.314 45.4216 274.201 44.6235 279.71 44.6235C284.775 44.6235 289.217 45.3772 293.038 46.8846C296.858 48.392 299.835 50.5645 301.967 53.402C304.189 56.1508 305.299 59.5646 305.299 63.6434V107.27H291.172V65.2395C291.172 62.402 289.972 60.2296 287.573 58.7222C285.263 57.1261 282.42 56.3281 279.044 56.3281C276.112 56.3281 273.402 56.6828 270.914 57.3921C268.426 58.1015 266.249 58.9439 264.383 59.9193C262.606 60.806 261.229 61.5597 260.252 62.1804Z" fill="#DAFC68"/>
<path d="M189.899 136.53H175.371V46.0858H189.899V136.53ZM240.677 76.6773C240.677 83.4163 239.3 89.2242 236.546 94.1011C233.791 98.8893 230.148 102.569 225.617 105.141C221.086 107.623 216.154 108.865 210.823 108.865C205.581 108.865 201.005 107.579 197.096 105.008C193.275 102.348 190.298 98.6233 188.166 93.8351C186.122 88.9582 185.101 83.2389 185.101 76.6773C185.101 70.027 186.122 64.3077 188.166 59.5195C190.298 54.7312 193.275 51.0514 197.096 48.4799C201.005 45.8198 205.581 44.4897 210.823 44.4897C216.154 44.4897 221.086 45.7755 225.617 48.3469C230.148 50.8297 233.791 54.4652 236.546 59.2535C239.3 64.0417 240.677 69.8496 240.677 76.6773ZM225.75 76.6773C225.75 72.5984 224.906 69.1403 223.218 66.3028C221.53 63.3767 219.264 61.2042 216.421 59.7855C213.666 58.2781 210.601 57.5244 207.225 57.5244C204.47 57.5244 201.76 58.2781 199.095 59.7855C196.429 61.2042 194.208 63.3323 192.431 66.1698C190.743 69.0073 189.899 72.5098 189.899 76.6773C189.899 80.8448 190.743 84.3473 192.431 87.1848C194.208 90.0223 196.429 92.1947 199.095 93.7021C201.76 95.1208 204.47 95.8302 207.225 95.8302C210.601 95.8302 213.666 95.1208 216.421 93.7021C219.264 92.1947 221.53 90.0223 223.218 87.1848C224.906 84.2586 225.75 80.7561 225.75 76.6773Z" fill="#DAFC68"/>
<path d="M75.8682 0.00585938C116.788 0.521337 149.801 33.6763 149.801 74.5L149.795 75.4629C149.277 116.164 115.944 149 74.9004 149L73.9326 148.994C33.3345 148.483 0.520054 115.844 0.00585938 75.4629L0 74.5C0.00010833 33.355 33.5342 0.000169074 74.9004 0L75.8682 0.00585938ZM74.9004 26.6045C48.3061 26.6047 26.7472 48.048 26.7471 74.5C26.7471 100.952 48.3061 122.395 74.9004 122.396C101.495 122.395 123.054 100.952 123.054 74.5C123.054 48.0479 101.495 26.6046 74.9004 26.6045ZM60.3008 35.4072C68.3639 27.3874 81.437 27.3873 89.5 35.4072L114.203 59.9785C122.266 67.9985 122.266 81.0015 114.203 89.0215L89.5 113.593C81.437 121.613 68.3639 121.613 60.3008 113.593L35.5977 89.0215C27.5346 81.0015 27.5346 67.9985 35.5977 59.9785L60.3008 35.4072Z" fill="#DAFC68"/>
</svg>
