<svg width="95" height="95" viewBox="0 0 95 95" fill="none" xmlns="http://www.w3.org/2000/svg">
<path d="M48.1143 0.00390625C74.0648 0.33265 94.9998 21.4715 95 47.5L94.9971 48.1143C94.6683 74.0649 73.5287 95 47.5 95L46.8867 94.9971C21.1404 94.6709 0.330062 73.8606 0.00390625 48.1143L0 47.5C0.000181047 21.2666 21.2666 0.00018107 47.5 0L48.1143 0.00390625ZM47.5 16.9619C30.6347 16.9621 16.9621 30.6347 16.9619 47.5C16.962 64.3655 30.6346 78.0379 47.5 78.0381C64.3655 78.038 78.038 64.3655 78.0381 47.5C78.0379 30.6346 64.3655 16.962 47.5 16.9619ZM38.2412 22.5752C43.3546 17.4618 51.6454 17.4618 56.7588 22.5752L72.4248 38.2412C77.5382 43.3546 77.5382 51.6454 72.4248 56.7588L56.7588 72.4248C51.6454 77.5382 43.3546 77.5382 38.2412 72.4248L22.5752 56.7588C17.4618 51.6454 17.4618 43.3546 22.5752 38.2412L38.2412 22.5752Z" fill="black"/>
</svg>
